<?xml version="1.0" encoding="utf-8"?>
<!-- Generator: Adobe Illustrator 26.3.1, SVG Export Plug-In . SVG Version: 6.00 Build 0)  -->
<svg version="1.1" id="Layer_1" xmlns="http://www.w3.org/2000/svg" xmlns:xlink="http://www.w3.org/1999/xlink" x="0px" y="0px"
	 viewBox="0 0 1597 642" style="enable-background:new 0 0 1597 642;" xml:space="preserve">
<style type="text/css">
	.st0{fill:#FEFDFF;}
	.st1{fill:#45707C;}
	.st2{fill:#06283D;}
	.st3{fill:#47B5FF;}
</style>
<g>
	<rect class="st0" width="1597" height="642"/>
	<g>
		<path class="st1" d="M1189.26,454.61l-45.64-35.28l-10.28,6.34l-68.37-144.57c0,0-17.99-38.77-38.93-3.37l-68.66,144.6
			l-65.58,40.81l131.01-276.45c20.94-33.72,38.94,0,38.94,0L1189.26,454.61z"/>
		<path class="st2" d="M1133.35,425.67l-52.53,32.43l-64.42-72.49l-58.99,36.72l68.66-144.6c20.94-35.4,38.93,3.37,38.93,3.37
			L1133.35,425.67z"/>
		<g>
			<path class="st3" d="M1243.92,496.88l-54.66-42.26L1061.78,186.7c0,0-18.01-33.72-38.94,0L891.82,463.14l-54.19,33.73
				l183.6-382.67c0,0,19.29-32.03,38.64,0C1079.2,146.24,1243.92,496.88,1243.92,496.88z"/>
			<g>
				<g>
					<path class="st2" d="M98.82,159.58h98.32c97.5,0,121.21,35.95,121.21,96.65v125.42c0,50-12.05,105-121.34,105H98.82V159.58z
						 M169.71,443.71h22.73c46.59,0,53.74-21.35,53.74-55.2V252.26c0-30.08-7.46-49.31-54.18-49.31h-22.29V443.71z"/>
					<path class="st2" d="M542.58,337.24H441.55v103.02h116.44l-8.97,46.39H370.67V159.58h177.5v46.82H441.55v84.46h101.03V337.24z"
						/>
					<path class="st2" d="M665.76,340.4v146.26h-70.88V159.58h98.18c69.93,0,111.22,19.94,111.22,78.81v12.45
						c0,50.26-28.98,63.04-46.79,68.23c26.8,8.95,42.13,22.7,42.13,67.08c0,27.54-0.69,80.67,4.21,100.49h-68.46
						c-6.11-19.76-4.82-73.48-4.82-97.24c0-39.87-7.21-49.02-48.35-49.02H665.76z M665.76,298.75h16.25
						c37.51,0,51.3-10.06,51.3-45.63V241.9c0-25.28-7.34-40.67-47.52-40.67h-20.03V298.75z"/>
				</g>
			</g>
			<g>
				<g>
					<path class="st2" d="M1276.35,169.42h72.66v141.68h0.72c18.37-31.01,59.4-98.52,85.8-141.68h82.3l-87.3,121.87l92.47,191.78
						h-80.49l-62.58-141.22l-30.91,42.24v98.99h-72.66V169.42z"/>
				</g>
			</g>
		</g>
	</g>
</g>
</svg>
